<svg xmlns="http://www.w3.org/2000/svg" xmlns:html="http://www.w3.org/1999/xhtml" xmlns:xlink="http://www.w3.org/1999/xlink" version="1.1" style="--editorTheme3-blockText: #000000; --editorTheme3-inputColor: #FFFFFF; --editorTheme3-inputColor-text: #000000; --editorTheme3-motion-primary: #80B5FF; --editorTheme3-motion-secondary: #B3D2FF; --editorTheme3-motion-tertiary: #3373CC; --editorTheme3-motion-field-background: #CCE1FF; --editorTheme3-looks-primary: #CCB3FF; --editorTheme3-looks-secondary: #DDCCFF; --editorTheme3-looks-tertiary: #774DCB; --editorTheme3-looks-field-background: #EEE5FF; --editorTheme3-sounds-primary: #E19DE1; --editorTheme3-sounds-secondary: #FFB3FF; --editorTheme3-sounds-tertiary: #BD42BD; --editorTheme3-sounds-field-background: #FFCCFF; --editorTheme3-control-primary: #FFBE4C; --editorTheme3-control-secondary: #FFDA99; --editorTheme3-control-tertiary: #CF8B17; --editorTheme3-control-field-background: #FFE3B3; --editorTheme3-event-primary: #FFD966; --editorTheme3-event-secondary: #FFECB3; --editorTheme3-event-tertiary: #CC9900; --editorTheme3-event-field-background: #FFF2CC; --editorTheme3-sensing-primary: #85C4E0; --editorTheme3-sensing-secondary: #AED8EA; --editorTheme3-sensing-tertiary: #2E8EB8; --editorTheme3-sensing-field-background: #C2E2F0; --editorTheme3-pen-primary: #13ECAF; --editorTheme3-pen-secondary: #75F0CD; --editorTheme3-pen-tertiary: #0B8E69; --editorTheme3-pen-field-background: #A3F5DE; --editorTheme3-operators-primary: #7ECE7E; --editorTheme3-operators-secondary: #B5E3B5; --editorTheme3-operators-tertiary: #389438; --editorTheme3-operators-field-background: #DAF1DA; --editorTheme3-data-primary: #FFA54C; --editorTheme3-data-secondary: #FFCC99; --editorTheme3-data-tertiary: #DB6E00; --editorTheme3-data-field-background: #FFE5CC; --editorTheme3-data_lists-primary: #FF9966; --editorTheme3-data_lists-secondary: #FFCAB0; --editorTheme3-data_lists-tertiary: #E64D00; --editorTheme3-data_lists-field-background: #FFDDCC; --editorTheme3-more-primary: #FF99AA; --editorTheme3-more-secondary: #FFCCD5; --editorTheme3-more-tertiary: #FF3355; --editorTheme3-more-field-background: #FFE5EA; --editorTheme3-addons-primary: #34e4d0; --editorTheme3-addons-secondary: #71e2d5; --editorTheme3-addons-tertiary: #29b2a2; --editorTheme3-addons-field-background: #9ee2db;"><style xmlns="http://www.w3.org/1999/xhtml">
    .blocklyText {
        fill: #000000;
        font-family: "Helvetica Neue", Helvetica, sans-serif;
        font-size: 12pt;
        font-weight: 500;
    }
    .blocklyNonEditableText&gt;text, .blocklyEditableText&gt;text {
        fill: #000000;
    }
    .blocklyDropdownText {
        fill: #000000 !important;
    }
    </style><g data-id="~84SM(V#.2Yy10bMERI5" class="blocklyDraggable blocklySelected" data-shapes="stack" transform="translate(0,0) scale(1)"><path class="blocklyPath blocklyBlockBackground" stroke="#FF3355" fill="#FF99AA" fill-opacity="1" d="m 0,6 A 6,6 0 0,1 6,0 H 12 c 2,0 3,0.75 4,1.5 l 2.0999999999999996,2.0999999999999996 c 1,0.75 2,1.5 4,1.5 h 4.799999999999999 c 2,0 3,-0.75 4,-1.5 l 2.0999999999999996,-2.0999999999999996c 1,-0.75 2,-1.5 4,-1.5 H 918.4027767181396 a 6,6 0 0,1 6,6 v 21.599999999999994  a 6,6 0 0,1 -6,6 H 40.4   h -3.25c -2,0 -3,0.75 -4,1.5 l -2.0999999999999996,2.0999999999999996 c -1,0.75 -2,1.5 -4,1.5 h -4.799999999999999 c -2,0 -3,-0.75 -4,-1.5 l -2.0999999999999996,-2.0999999999999996c -1,-0.75 -2,-1.5 -4,-1.5 H 6 a 6,6 0 0,1 -6,-6 z"/><text class="blocklyText" y="2" text-anchor="middle" dominant-baseline="middle" dy="0" x="57.65972137451172" transform="translate(8, 16.799999999999997) ">Text S1 Person:</text><path class="blocklyPath" style="visibility: hidden" d="" fill="#FF3355"/><text class="blocklyText" y="2" text-anchor="middle" dominant-baseline="middle" dy="0" x="37.5" transform="translate(167.31944274902344, 16.799999999999997) ">Remark 1:</text><path class="blocklyPath" style="visibility: hidden" d="" fill="#FF3355"/><text class="blocklyText" y="2" text-anchor="middle" dominant-baseline="middle" dy="0" x="44.3125" transform="translate(286.31944274902344, 16.799999999999997) ">Weak Point:</text><path class="blocklyPath" style="visibility: hidden" d="" fill="#FF3355"/><text class="blocklyText" y="2" text-anchor="middle" dominant-baseline="middle" dy="0" x="18.38194465637207" transform="translate(418.94444274902344, 16.799999999999997) ">type:</text><path class="blocklyPath" style="visibility: hidden" d="" fill="#FF3355"/><text class="blocklyText" y="2" text-anchor="middle" dominant-baseline="middle" dy="0" x="37.5" transform="translate(499.7083320617676, 16.799999999999997) ">Remark 2:</text><path class="blocklyPath" style="visibility: hidden" d="" fill="#FF3355"/><text class="blocklyText" y="2" text-anchor="middle" dominant-baseline="middle" dy="0" x="32.60416793823242" transform="translate(618.7083320617676, 16.799999999999997) ">Solution:</text><path class="blocklyPath" style="visibility: hidden" d="" fill="#FF3355"/><text class="blocklyText" y="2" text-anchor="middle" dominant-baseline="middle" dy="0" x="11.708333015441895" transform="translate(727.9166679382324, 16.799999999999997) ">VL:</text><path class="blocklyPath" style="visibility: hidden" d="" fill="#FF3355"/><text class="blocklyText" y="2" text-anchor="middle" dominant-baseline="middle" dy="0" x="42.53472137451172" transform="translate(795.3333339691162, 16.799999999999997) ">Shoot type:</text><path class="blocklyPath" style="visibility: hidden" d="" fill="#FF3355"/><g data-id="8}G*at_GB)`[V5F*|4Is" data-argument-type="text" data-shapes="argument round" transform="translate(131.31944274902344,5.599999999999998)"><path class="blocklyPath blocklyBlockBackground" stroke="#FF3355" fill="#FFFFFF" fill-opacity="1" d="m 0,0 m 11.2,0 H 16.8 a 11.2 11.2 0 0 1 0 22.4 H 11.2 a 11.2 11.2 0 0 1 0 -22.4 z"/><g class="blocklyEditableText" transform="translate(8, 0) " style="cursor: text;"><text class="blocklyText" x="8.399999999999999" y="13.2" dominant-baseline="middle" dy="0" text-anchor="middle"> </text></g><g><g/></g></g><g data-id="f[Cwqdq%|+,Y8LE7EDN." data-argument-type="text" data-shapes="argument round" transform="translate(250.31944274902344,5.599999999999998)"><path class="blocklyPath blocklyBlockBackground" stroke="#FF3355" fill="#FFFFFF" fill-opacity="1" d="m 0,0 m 11.2,0 H 16.8 a 11.2 11.2 0 0 1 0 22.4 H 11.2 a 11.2 11.2 0 0 1 0 -22.4 z"/><g class="blocklyEditableText" transform="translate(8, 0) " style="cursor: text;"><text class="blocklyText" x="8.399999999999999" y="13.2" dominant-baseline="middle" dy="0" text-anchor="middle"> </text></g><g><g/></g></g><g data-id="[.Hz9)H)AoE]#cip1uqg" data-argument-type="text" data-shapes="argument round" transform="translate(382.94444274902344,5.599999999999998)"><path class="blocklyPath blocklyBlockBackground" stroke="#FF3355" fill="#FFFFFF" fill-opacity="1" d="m 0,0 m 11.2,0 H 16.8 a 11.2 11.2 0 0 1 0 22.4 H 11.2 a 11.2 11.2 0 0 1 0 -22.4 z"/><g class="blocklyEditableText" transform="translate(8, 0) " style="cursor: text;"><text class="blocklyText" x="8.399999999999999" y="13.2" dominant-baseline="middle" dy="0" text-anchor="middle"> </text></g><g><g/></g></g><g data-id="QBPDXyCMG_]g7~-YyG?Y" data-argument-type="text" data-shapes="argument round" transform="translate(463.7083320617676,5.599999999999998)"><path class="blocklyPath blocklyBlockBackground" stroke="#FF3355" fill="#FFFFFF" fill-opacity="1" d="m 0,0 m 11.2,0 H 16.8 a 11.2 11.2 0 0 1 0 22.4 H 11.2 a 11.2 11.2 0 0 1 0 -22.4 z"/><g class="blocklyEditableText" transform="translate(8, 0) " style="cursor: text;"><text class="blocklyText" x="8.399999999999999" y="13.2" dominant-baseline="middle" dy="0" text-anchor="middle"> </text></g><g><g/></g></g><g data-id="]h7Py`7#G_YWR:RZ$lru" data-argument-type="text" data-shapes="argument round" transform="translate(582.7083320617676,5.599999999999998)"><path class="blocklyPath blocklyBlockBackground" stroke="#FF3355" fill="#FFFFFF" fill-opacity="1" d="m 0,0 m 11.2,0 H 16.8 a 11.2 11.2 0 0 1 0 22.4 H 11.2 a 11.2 11.2 0 0 1 0 -22.4 z"/><g class="blocklyEditableText" transform="translate(8, 0) " style="cursor: text;"><text class="blocklyText" x="8.399999999999999" y="13.2" dominant-baseline="middle" dy="0" text-anchor="middle"> </text></g><g><g/></g></g><g data-id="VfYl`wJScvAOx^Axrg=f" data-argument-type="text" data-shapes="argument round" transform="translate(691.9166679382324,5.599999999999998)"><path class="blocklyPath blocklyBlockBackground" stroke="#FF3355" fill="#FFFFFF" fill-opacity="1" d="m 0,0 m 11.2,0 H 16.8 a 11.2 11.2 0 0 1 0 22.4 H 11.2 a 11.2 11.2 0 0 1 0 -22.4 z"/><g class="blocklyEditableText" transform="translate(8, 0) " style="cursor: text;"><text class="blocklyText" x="8.399999999999999" y="13.2" dominant-baseline="middle" dy="0" text-anchor="middle"> </text></g><g><g/></g></g><g data-id="yM-i,M|!@bcZ[|@TB3q1" data-argument-type="text" data-shapes="argument round" transform="translate(759.3333339691162,5.599999999999998)"><path class="blocklyPath blocklyBlockBackground" stroke="#FF3355" fill="#FFFFFF" fill-opacity="1" d="m 0,0 m 11.2,0 H 16.8 a 11.2 11.2 0 0 1 0 22.4 H 11.2 a 11.2 11.2 0 0 1 0 -22.4 z"/><g class="blocklyEditableText" transform="translate(8, 0) " style="cursor: text;"><text class="blocklyText" x="8.399999999999999" y="13.2" dominant-baseline="middle" dy="0" text-anchor="middle"> </text></g><g><g/></g></g><g data-id="^n[b|wR$N=S.oXQ`F%%T" data-argument-type="text" data-shapes="argument round" transform="translate(888.4027767181396,5.599999999999998)"><path class="blocklyPath blocklyBlockBackground" stroke="#FF3355" fill="#FFFFFF" fill-opacity="1" d="m 0,0 m 11.2,0 H 16.8 a 11.2 11.2 0 0 1 0 22.4 H 11.2 a 11.2 11.2 0 0 1 0 -22.4 z"/><g class="blocklyEditableText" transform="translate(8, 0) " style="cursor: text;"><text class="blocklyText" x="8.399999999999999" y="13.2" dominant-baseline="middle" dy="0" text-anchor="middle"> </text></g><g><g/></g></g><g><g/></g></g></svg>