<?xml version="1.0" encoding="UTF-8"?>
<svg width="49px" height="49px" viewBox="0 0 49 49" version="1.1" xmlns="http://www.w3.org/2000/svg" xmlns:xlink="http://www.w3.org/1999/xlink">
    <title>Fill 10785</title>
    <g id="Page-1" stroke="none" stroke-width="1" fill="none" fill-rule="evenodd">
        <g id="SuperMarioPartyJamboree_DiceBlock" transform="translate(-39, -36)" fill="#FFFFFE">
            <path d="M76.184,74.4222 L75.351,74.4222 L75.351,72.2092 L76.184,72.2092 C76.794,72.2092 77.29,72.7062 77.29,73.3162 C77.29,73.9262 76.794,74.4222 76.184,74.4222 L76.184,74.4222 Z M76.145,71.4072 L74.567,71.4072 L74.567,75.2242 L76.145,75.2242 C77.227,75.2242 78.108,74.3682 78.108,73.3162 C78.108,72.2642 77.227,71.4072 76.145,71.4072 L76.145,71.4072 Z M73.222,78.5422 C74.035,78.5422 74.793,78.9752 75.198,79.6602 L76.37,78.6412 C75.653,77.5742 74.469,76.9402 73.18,76.9402 C71.06,76.9402 69.336,78.6642 69.336,80.7842 C69.336,82.9032 71.06,84.6272 73.18,84.6272 C74.469,84.6272 75.653,83.9942 76.37,82.9272 L75.198,81.9082 C74.793,82.5922 74.034,83.0262 73.222,83.0262 C71.962,83.0262 70.937,82.0202 70.937,80.7842 C70.937,79.5472 71.962,78.5422 73.222,78.5422 L73.222,78.5422 Z M62.115,78.7042 L64.417,78.7042 L64.417,84.3772 L65.966,84.3772 L65.966,78.7042 L68.215,78.7042 L68.215,77.1762 L62.115,77.1762 L62.115,78.7042 Z M82.869,80.0142 L79.506,80.0142 L79.506,77.1762 L78.016,77.1762 L78.016,84.3772 L79.506,84.3772 L79.506,81.5042 L82.869,81.5042 L82.869,84.3772 L84.359,84.3772 L84.359,77.1762 L82.869,77.1762 L82.869,80.0142 Z M87.015,83.3052 L86.745,84.0892 L86.475,83.3052 L86.178,83.3052 L86.178,84.3772 L86.369,84.3772 L86.369,83.5542 L86.649,84.3672 L86.652,84.3772 L86.837,84.3772 L86.841,84.3672 L87.12,83.5542 L87.12,84.3772 L87.312,84.3772 L87.312,83.3052 L87.015,83.3052 Z M82.609,74.5042 C81.955,74.5042 81.423,73.9712 81.423,73.3152 C81.423,72.6612 81.955,72.1282 82.609,72.1282 C83.263,72.1282 83.795,72.6612 83.795,73.3152 C83.795,73.9712 83.263,74.5042 82.609,74.5042 L82.609,74.5042 Z M82.609,71.2792 C81.488,71.2792 80.576,72.1932 80.576,73.3162 C80.576,74.4392 81.488,75.3522 82.609,75.3522 C83.73,75.3522 84.642,74.4392 84.642,73.3162 C84.642,72.1932 83.73,71.2792 82.609,71.2792 L82.609,71.2792 Z M85.064,83.5102 L85.394,83.5102 L85.394,84.3772 L85.603,84.3772 L85.603,83.5102 L85.925,83.5102 L85.925,83.3052 L85.064,83.3052 L85.064,83.5102 Z M64.753,74.5172 L62.56,74.5172 L62.56,73.6222 L64.588,73.6222 L64.588,72.9322 L62.56,72.9322 L62.56,72.1082 L64.753,72.1082 L64.753,71.4072 L61.785,71.4092 L61.785,75.2242 L64.753,75.2232 L64.753,74.5172 Z M71.339,75.2242 L71.339,71.4072 L70.564,71.4072 L70.564,73.9142 L68.687,71.4072 L67.916,71.4072 L67.916,75.2242 L68.69,75.2242 L68.69,72.6722 L70.585,75.2242 L71.339,75.2242 Z M45.889,75.2242 L46.738,75.2242 L46.738,71.4072 L45.889,71.4072 L45.889,75.2242 Z M42.578,80.0032 C41.537,79.8322 40.865,79.6392 40.865,79.1542 C40.865,78.5952 41.613,78.3792 42.617,78.3792 C43.551,78.3792 44.487,78.7352 44.821,78.8752 L45.333,77.6292 C44.97,77.4852 43.82,77.0742 42.544,77.0742 C40.988,77.0742 39.335,77.8332 39.335,79.2392 C39.335,80.3802 40.139,80.9622 42.203,81.3172 C43.659,81.5682 44.46,81.7062 44.438,82.3312 C44.425,82.6762 44.158,83.2542 42.518,83.2542 C41.198,83.2542 40.269,82.7762 39.946,82.5822 L39.264,83.8122 C39.627,84.0032 40.846,84.5752 42.414,84.5752 C44.705,84.5752 45.916,83.7812 45.916,82.2792 C45.916,81.4092 45.622,80.5032 42.578,80.0032 L42.578,80.0032 Z M54.01,82.4002 L52.484,77.1762 L51.206,77.1762 L49.689,82.3812 L48.304,77.1762 L46.736,77.1762 L48.774,84.3772 L50.504,84.3772 L51.847,79.6322 L53.181,84.3772 L54.919,84.3772 L56.967,77.1762 L55.4,77.1762 L54.01,82.4002 Z M50.391,72.6722 L52.286,75.2242 L53.039,75.2242 L53.039,71.4072 L52.265,71.4072 L52.265,73.9142 L50.388,71.4072 L49.617,71.4072 L49.617,75.2242 L50.391,75.2242 L50.391,72.6722 Z M58.756,84.3772 L60.358,84.3772 L60.358,77.1762 L58.756,77.1762 L58.756,84.3772 Z M58.991,71.4072 L55.758,71.4072 L55.758,72.2172 L56.978,72.2172 L56.978,75.2242 L57.799,75.2242 L57.799,72.2172 L58.991,72.2172 L58.991,71.4072 Z M40.362,72.6722 L42.258,75.2242 L43.011,75.2242 L43.011,71.4072 L42.237,71.4072 L42.237,73.9142 L40.359,71.4072 L39.589,71.4072 L39.589,75.2242 L40.362,75.2242 L40.362,72.6722 Z M51.584,45.3562 C51.584,46.9432 52.871,48.2292 54.457,48.2292 C56.045,48.2292 57.331,46.9432 57.331,45.3562 C57.331,43.7692 56.045,42.4822 54.457,42.4822 C52.871,42.4822 51.584,43.7692 51.584,45.3562 L51.584,45.3562 Z M59.103,64.2862 L54.662,64.2862 C53.227,64.2862 51.878,63.7272 50.864,62.7122 C49.849,61.6982 49.29,60.3492 49.29,58.9132 L49.29,44.0242 C49.29,42.5882 49.849,41.2392 50.863,40.2252 C51.878,39.2102 53.227,38.6512 54.662,38.6512 L59.103,38.6512 L59.103,64.2862 Z M61.342,36.1872 L54.662,36.1872 C50.334,36.1872 46.826,39.6962 46.826,44.0242 L46.826,58.9132 C46.826,63.2412 50.334,66.7492 54.662,66.7492 L61.342,66.7492 C61.466,66.7492 61.567,66.6492 61.567,66.5252 L61.567,36.4112 C61.567,36.2872 61.466,36.1872 61.342,36.1872 L61.342,36.1872 Z M70.671,49.9062 C72.377,49.9062 73.761,51.2902 73.761,52.9962 C73.761,54.7032 72.377,56.0862 70.671,56.0862 C68.964,56.0862 67.581,54.7032 67.581,52.9962 C67.581,51.2902 68.964,49.9062 70.671,49.9062 L70.671,49.9062 Z M64.848,66.7492 L69.552,66.7492 C73.88,66.7492 77.388,63.2412 77.388,58.9132 L77.388,44.0242 C77.388,39.6962 73.88,36.1872 69.552,36.1872 L64.824,36.1872 C64.714,36.1872 64.625,36.2762 64.625,36.3862 L64.625,66.5252 C64.625,66.6492 64.725,66.7492 64.848,66.7492 L64.848,66.7492 Z" id="Fill-10785"></path>
        </g>
    </g>
</svg>